<svg width="108" height="108" viewBox="0 0 108 108" fill="none" xmlns="http://www.w3.org/2000/svg">
<path d="M102.6 0H5.4C3.96783 0 2.59432 0.568927 1.58162 1.58162C0.568927 2.59432 0 3.96783 0 5.4V102.6C0 104.032 0.568927 105.406 1.58162 106.418C2.59432 107.431 3.96783 108 5.4 108H102.6C104.032 108 105.406 107.431 106.418 106.418C107.431 105.406 108 104.032 108 102.6V5.4C108 3.96783 107.431 2.59432 106.418 1.58162C105.406 0.568927 104.032 0 102.6 0ZM84.8826 47.115C84.294 47.1744 83.7 47.2014 83.1114 47.2068C79.9076 47.211 76.7531 46.4168 73.9332 44.8961C71.1133 43.3753 68.7167 41.1759 66.96 38.4966V68.1588C66.9611 72.4965 65.6757 76.7371 63.2665 80.3442C60.8573 83.9513 57.4324 86.7628 53.4251 88.4233C49.4178 90.0837 45.0081 90.5185 40.7537 89.6725C36.4993 88.8265 32.5914 86.7378 29.5242 83.6706C26.457 80.6034 24.3683 76.6955 23.5223 72.4411C22.6763 68.1867 23.1111 63.777 24.7715 59.7697C26.432 55.7624 29.2435 52.3375 32.8506 49.9283C36.4577 47.5191 40.6983 46.2337 45.036 46.2348C45.495 46.2348 45.9378 46.278 46.3914 46.305V57.105C44.8806 56.922 43.3483 57.0499 41.8887 57.4808C40.4292 57.9117 39.0731 58.6366 37.904 59.6108C36.7348 60.585 35.7772 61.788 35.09 63.1459C34.4029 64.5038 34.0006 65.9879 33.9081 67.5069C33.8155 69.0259 34.0346 70.5479 34.5518 71.9791C35.069 73.4104 35.8734 74.7208 36.9156 75.8298C37.9578 76.9388 39.2158 77.8229 40.6123 78.4279C42.0087 79.0328 43.5141 79.3458 45.036 79.3476C48.0393 79.402 50.944 78.2754 53.1252 76.2103C55.3065 74.1451 56.5901 71.3064 56.7 68.3046L56.808 17.9172H67.1436C67.6155 22.4071 69.6508 26.5881 72.8935 29.7292C76.1362 32.8702 80.38 34.7713 84.8826 35.1V47.115Z" fill="#E13646"/>
</svg>
