<svg width="120" height="120" viewBox="0 0 120 120" fill="none" xmlns="http://www.w3.org/2000/svg">
<path d="M90.0192 0C94.1283 0 97.9986 0.788384 101.63 2.36515C105.261 3.94192 108.439 6.09206 111.162 8.81557C113.886 11.5391 116.036 14.7165 117.613 18.3479C119.189 21.9792 119.978 25.8495 119.978 29.9586V89.8758C119.978 93.985 119.189 97.8791 117.613 101.558C116.036 105.237 113.886 108.439 111.162 111.162C108.439 113.886 105.261 116.036 101.63 117.613C97.9986 119.189 94.1283 119.978 90.0192 119.978H29.9586C25.8495 119.978 21.9792 119.189 18.3479 117.613C14.7165 116.036 11.5391 113.886 8.81557 111.162C6.09206 108.439 3.94192 105.237 2.36515 101.558C0.788384 97.8791 0 93.985 0 89.8758V29.9586C0 25.8495 0.788384 21.9792 2.36515 18.3479C3.94192 14.7165 6.09206 11.5391 8.81557 8.81557C11.5391 6.09206 14.7165 3.94192 18.3479 2.36515C21.9792 0.788384 25.8495 0 29.9586 0H90.0192ZM50.8866 54.4702C50.8866 56.6681 51.6033 58.3882 53.0368 59.6305C54.3746 60.8728 56.2859 61.494 58.7705 61.494C61.3506 61.494 63.3097 60.8728 64.6475 59.6305C66.0809 58.4838 66.7977 56.7637 66.7977 54.4702V41.2827C66.7977 39.467 66.0809 37.8902 64.6475 36.5524C63.3097 35.3101 61.4462 34.6889 59.0572 34.6889C56.5726 34.6889 54.6135 35.2623 53.1801 36.409C51.6511 37.5558 50.8866 39.1325 50.8866 41.1393V54.4702ZM43.1461 61.494H26.2317V66.0809H31.9654V93.0294H37.4124V66.0809H43.1461V61.494ZM43.2895 46.5863L50.4566 26.2317H44.1495L40.4226 40.1359H39.9926L35.979 26.2317H29.8153L37.1257 47.1597V60.9206H43.2895V46.5863ZM59.2005 69.8079H54.3269V87.439C54.1357 87.7257 53.8968 87.9646 53.6101 88.1557L52.7501 88.7291C52.1767 89.0158 51.7467 89.1591 51.46 89.1591C50.9822 89.1591 50.6477 89.0635 50.4566 88.8724C50.2655 88.6813 50.1699 88.2513 50.1699 87.5823V69.8079H45.2963V89.3024C45.2963 90.6403 45.583 91.6437 46.1563 92.3126C46.7297 93.0771 47.542 93.4594 48.5931 93.4594C49.4532 93.4594 50.4088 93.1727 51.46 92.5993C52.3201 92.2171 53.2757 91.5004 54.3269 90.4492V93.0294H59.2005V69.8079ZM76.8316 75.3982C76.8316 73.487 76.4016 72.0058 75.5416 70.9546C74.8726 69.999 73.7259 69.5212 72.1013 69.5212C71.2413 69.5212 70.4768 69.7123 69.8079 70.0945C69.0434 70.3812 68.3744 70.9068 67.8011 71.6713V61.494H62.7841V93.0294H67.8011V91.3092C68.0877 91.6915 68.3983 92.0021 68.7328 92.241C69.0672 92.4799 69.4256 92.6949 69.8079 92.886C70.4768 93.1727 71.3368 93.316 72.388 93.316C73.8214 93.316 74.9204 92.886 75.6849 92.026C76.4494 91.0703 76.8316 89.828 76.8316 88.2991V75.3982ZM75.1115 61.2073C76.2583 61.2073 77.3094 60.9684 78.2651 60.4906C79.2207 60.0128 80.2719 59.2005 81.4186 58.0538V60.9206H86.8656V35.2623H81.4186V54.7569C81.0364 55.2347 80.463 55.7125 79.6985 56.1903C79.1251 56.477 78.6473 56.6203 78.2651 56.6203C77.5961 56.6203 77.2139 56.477 77.1183 56.1903C76.8316 55.9036 76.6883 55.4736 76.6883 54.9002V35.2623H71.2413V56.7637C71.2413 58.2927 71.5757 59.3916 72.2447 60.0606C72.7225 60.825 73.6781 61.2073 75.1115 61.2073ZM93.7461 76.1149C93.7461 73.8214 93.1249 72.1013 91.8826 70.9546C90.7359 69.8079 89.0158 69.2345 86.7223 69.2345C84.5244 69.2345 82.7565 69.8556 81.4186 71.0979C80.0807 72.4358 79.4118 74.1081 79.4118 76.1149V86.4356C79.4118 88.7291 80.033 90.497 81.2753 91.7393C82.6131 93.0771 84.3332 93.7461 86.4356 93.7461C88.8246 93.7461 90.6403 93.1249 91.8826 91.8826C93.1249 90.7359 93.7461 88.9202 93.7461 86.4356V85.2889H88.7291V86.2923C88.7291 87.7257 88.5857 88.6335 88.2991 89.0158C87.9168 89.398 87.3434 89.5891 86.5789 89.5891C85.6233 89.5891 85.05 89.3502 84.8588 88.8724C84.5721 88.4902 84.4288 87.6301 84.4288 86.2923V81.992H93.7461V76.1149ZM86.5789 73.2481C87.3434 73.2481 87.869 73.487 88.1557 73.9648C88.538 74.347 88.7291 75.016 88.7291 75.9716V78.4084H84.4288V75.9716C84.4288 75.1115 84.5721 74.4426 84.8588 73.9648C85.3366 73.487 85.91 73.2481 86.5789 73.2481ZM69.8079 73.2481C70.4768 73.2481 70.9546 73.4392 71.2413 73.8214C71.6235 74.2037 71.8146 74.7771 71.8146 75.5416V87.5823C71.8146 88.3468 71.6713 88.8724 71.3846 89.1591C71.0979 89.5414 70.6679 89.7325 70.0945 89.7325C69.7123 89.7325 69.33 89.6369 68.9478 89.4458C68.47 89.2547 68.0877 88.968 67.8011 88.5857V74.1081C68.1833 73.7259 68.5178 73.487 68.8045 73.3914C68.9956 73.2959 69.33 73.2481 69.8079 73.2481ZM58.7705 57.0504C58.006 57.0504 57.4804 56.8592 57.1937 56.477C56.7159 56.1903 56.477 55.6647 56.477 54.9002V40.996C56.477 40.5182 56.7159 40.0404 57.1937 39.5626C57.576 39.2759 58.1015 39.1325 58.7705 39.1325C59.4394 39.1325 60.0606 39.2759 60.6339 39.5626C61.0162 39.9448 61.2073 40.4226 61.2073 40.996V54.9002C61.2073 55.6647 61.0162 56.1903 60.6339 56.477C60.2517 56.8592 59.6305 57.0504 58.7705 57.0504Z" fill="#E13646"/>
</svg>
