<svg xmlns="http://www.w3.org/2000/svg" xmlns:xlink="http://www.w3.org/1999/xlink" width="500" zoomAndPan="magnify" viewBox="0 0 375 374.999991" height="500" preserveAspectRatio="xMidYMid meet" version="1.0"><path fill="#f99f36" d="M 186.539062 -0.960938 C 82.984375 -0.960938 -0.960938 82.984375 -0.960938 186.539062 C -0.960938 290.09375 82.984375 374.039062 186.539062 374.039062 C 290.09375 374.039062 374.039062 290.09375 374.039062 186.539062 C 374.039062 82.984375 290.09375 -0.960938 186.539062 -0.960938 Z M 186.539062 -0.960938 " fill-opacity="1" fill-rule="evenodd"/><path fill="#eceff1" d="M 186.539062 75.960938 C 146.710938 75.960938 114.421875 108.25 114.421875 148.078125 C 114.421875 187.90625 146.710938 220.191406 186.539062 220.191406 C 226.367188 220.191406 258.652344 187.90625 258.652344 148.078125 C 258.652344 108.25 226.367188 75.960938 186.539062 75.960938 Z M 186.539062 75.960938 " fill-opacity="1" fill-rule="evenodd"/><path fill="#eceff1" d="M 318.917969 319.324219 L 315.546875 313.785156 C 289.777344 269.355469 241.660156 239.421875 186.539062 239.421875 C 131.355469 239.421875 83.195312 269.421875 57.449219 313.933594 L 57.3125 314.171875 L 54.355469 319.519531 C 88.253906 353.214844 134.964844 374.039062 186.539062 374.039062 C 238.210938 374.039062 285.003906 353.132812 318.917969 319.324219 Z M 318.917969 319.324219 " fill-opacity="1" fill-rule="evenodd"/></svg>